<svg xmlns="http://www.w3.org/2000/svg" width="16" height="16" viewBox="0 0 16 16">
  <g id="approved" transform="translate(2 -2)">
    <path id="Path_28483" data-name="Path 28483" d="M10.5,2.5a8,8,0,1,0,8,8A8.007,8.007,0,0,0,10.5,2.5Zm4.042,6.349L9.708,13.683a.325.325,0,0,1-.472,0L6.458,10.9a.325.325,0,0,1,0-.472L7.519,9.372a.325.325,0,0,1,.472,0l1.482,1.482,3.537-3.537a.325.325,0,0,1,.472,0l1.061,1.061A.326.326,0,0,1,14.542,8.849Z" transform="translate(-4.5 -0.5)" fill="#1cb965"/>
  </g>
</svg>
