<svg xmlns="http://www.w3.org/2000/svg" width="68.339" height="62.759" viewBox="0 0 68.339 62.759">
  <g id="commission" transform="translate(0 -3.621)">
    <g id="XMLID_21" data-name="XMLID 21">
      <path id="XMLID_148" data-name="XMLID 148" d="M30.635,7.241C13.716,7.241,0,3.667,0,0V8.443c.009,3.664,13.721,7.246,30.635,7.246S61.26,12.108,61.269,8.443V0C61.269,3.667,47.553,7.241,30.635,7.241Z" transform="translate(3.535 50.69)" fill="#e4af18"/>
      <path id="XMLID_147" data-name="XMLID 147" d="M30.635,7.241C13.716,7.241,0,3.667,0,0V8.443c.009,3.664,13.721,7.246,30.635,7.246S61.26,12.108,61.269,8.443V0C61.269,3.667,47.553,7.241,30.635,7.241Z" transform="translate(0 37.414)" fill="#f4bf1a"/>
      <path id="XMLID_146" data-name="XMLID 146" d="M30.635,7.241C13.716,7.241,0,3.667,0,0V8.443c.009,3.664,13.721,7.246,30.635,7.246S61.26,12.108,61.269,8.443V0C61.269,3.667,47.553,7.241,30.635,7.241Z" transform="translate(7.07 24.138)" fill="#e4af18"/>
      <path id="XMLID_145" data-name="XMLID 145" d="M61.269,6.191c0,3.665-13.716,7.084-30.635,7.084S0,9.857,0,6.191,13.716,0,30.635,0,61.269,2.525,61.269,6.191Z" transform="translate(0 3.621)" fill="#ffd949"/>
      <path id="XMLID_144" data-name="XMLID 144" d="M30.635,7.241C13.716,7.241,0,3.667,0,0V8.443c.009,3.664,13.721,7.246,30.635,7.246S61.26,12.108,61.269,8.443V0C61.269,3.667,47.553,7.241,30.635,7.241Z" transform="translate(0 9.655)" fill="#f4bf1a"/>
      <path id="XMLID_143" data-name="XMLID 143" d="M0,0V8.442q1.075.406,2.357.78V.778Q1.073.406,0,0Z" transform="translate(4.713 13.365)" fill="#dca815"/>
      <path id="XMLID_142" data-name="XMLID 142" d="M0,.778V9.222q1.283-.373,2.357-.78V0Q1.282.406,0,.778Z" transform="translate(54.2 13.365)" fill="#dca815"/>
      <path id="XMLID_141" data-name="XMLID 141" d="M0,0V8.445q1.131.241,2.357.456V.456Q1.132.241,0,0Z" transform="translate(10.604 15.02)" fill="#dca815"/>
      <path id="XMLID_140" data-name="XMLID 140" d="M0,.456V8.9q1.225-.217,2.357-.457V0Q1.225.241,0,.456Z" transform="translate(48.309 15.02)" fill="#dca815"/>
      <path id="XMLID_139" data-name="XMLID 139" d="M0,0V8.446c.768.1,1.552.2,2.357.28V.28C1.552.2.768.1,0,0Z" transform="translate(16.496 16.014)" fill="#dca815"/>
      <path id="XMLID_138" data-name="XMLID 138" d="M0,.281V8.727c.8-.086,1.588-.18,2.357-.28V0C1.588.1.8.2,0,.281Z" transform="translate(42.417 16.014)" fill="#dca815"/>
      <path id="XMLID_137" data-name="XMLID 137" d="M0,0V8.447q1.161.083,2.357.145V.144Q1.16.084,0,0Z" transform="translate(22.387 16.606)" fill="#dca815"/>
      <path id="XMLID_136" data-name="XMLID 136" d="M0,.144V8.592q1.2-.06,2.357-.145V0Q1.2.083,0,.144Z" transform="translate(36.526 16.606)" fill="#dca815"/>
      <path id="XMLID_135" data-name="XMLID 135" d="M1.178.007C.784.007.391,0,0,0V8.448c.391,0,.784.007,1.178.007s.787,0,1.178-.007V0C1.965,0,1.573.007,1.178.007Z" transform="translate(29.456 16.889)" fill="#dca815"/>
      <path id="XMLID_134" data-name="XMLID 134" d="M0,0V8.442q1.075.406,2.357.78V.778Q1.073.406,0,0Z" transform="translate(11.783 27.848)" fill="#c49214"/>
      <path id="XMLID_133" data-name="XMLID 133" d="M0,.778V9.222q1.283-.373,2.357-.78V0Q1.282.406,0,.778Z" transform="translate(61.269 27.848)" fill="#c49214"/>
      <path id="XMLID_132" data-name="XMLID 132" d="M0,0V8.445q1.131.241,2.357.456V.456Q1.132.241,0,0Z" transform="translate(17.674 29.503)" fill="#c49214"/>
      <path id="XMLID_131" data-name="XMLID 131" d="M0,.456V8.9q1.225-.217,2.357-.457V0Q1.225.241,0,.456Z" transform="translate(55.378 29.503)" fill="#c49214"/>
      <path id="XMLID_130" data-name="XMLID 130" d="M0,0V8.446c.768.1,1.552.2,2.357.28V.28C1.552.194.768.1,0,0Z" transform="translate(23.565 30.498)" fill="#c49214"/>
      <path id="XMLID_129" data-name="XMLID 129" d="M0,.279V8.726c.8-.086,1.588-.18,2.357-.28V0C1.588.1.8.2,0,.279Z" transform="translate(49.487 30.498)" fill="#c49214"/>
      <path id="XMLID_128" data-name="XMLID 128" d="M0,0V8.447q1.161.083,2.357.145V.144Q1.16.084,0,0Z" transform="translate(29.456 31.088)" fill="#c49214"/>
      <path id="XMLID_127" data-name="XMLID 127" d="M0,.144V8.592q1.2-.06,2.357-.145V0Q1.2.083,0,.144Z" transform="translate(43.596 31.088)" fill="#c49214"/>
      <path id="XMLID_126" data-name="XMLID 126" d="M1.178.007C.784.007.391,0,0,0V8.448c.391,0,.784.007,1.178.007s.787,0,1.178-.007V0C1.965,0,1.573.007,1.178.007Z" transform="translate(36.526 31.372)" fill="#c49214"/>
      <path id="XMLID_125" data-name="XMLID 125" d="M0,0V8.442q1.075.406,2.357.78V.778Q1.073.406,0,0Z" transform="translate(4.713 41.124)" fill="#dca815"/>
      <path id="XMLID_124" data-name="XMLID 124" d="M0,.778V9.222q1.283-.373,2.357-.78V0Q1.282.406,0,.778Z" transform="translate(54.2 41.124)" fill="#dca815"/>
      <path id="XMLID_123" data-name="XMLID 123" d="M0,0V8.445q1.131.241,2.357.456V.456Q1.132.241,0,0Z" transform="translate(10.604 42.778)" fill="#dca815"/>
      <path id="XMLID_122" data-name="XMLID 122" d="M0,.456V8.9q1.225-.217,2.357-.457V0Q1.225.241,0,.456Z" transform="translate(48.309 42.778)" fill="#dca815"/>
      <path id="XMLID_121" data-name="XMLID 121" d="M0,0V8.446c.768.1,1.552.2,2.357.28V.28C1.552.194.768.1,0,0Z" transform="translate(16.496 43.774)" fill="#dca815"/>
      <path id="XMLID_120" data-name="XMLID 120" d="M0,.279V8.726c.8-.086,1.588-.18,2.357-.28V0C1.588.1.8.2,0,.279Z" transform="translate(42.417 43.774)" fill="#dca815"/>
      <path id="XMLID_119" data-name="XMLID 119" d="M0,0V8.447q1.161.083,2.357.145V.144Q1.16.084,0,0Z" transform="translate(22.387 44.364)" fill="#dca815"/>
      <path id="XMLID_118" data-name="XMLID 118" d="M0,.144V8.592q1.2-.06,2.357-.145V0Q1.2.083,0,.144Z" transform="translate(36.526 44.364)" fill="#dca815"/>
      <path id="XMLID_117" data-name="XMLID 117" d="M1.178.007C.784.007.391,0,0,0V8.448c.391,0,.784.007,1.178.007s.787,0,1.178-.007V0C1.965,0,1.573.007,1.178.007Z" transform="translate(29.456 44.648)" fill="#dca815"/>
      <path id="XMLID_116" data-name="XMLID 116" d="M0,0V8.442q1.075.406,2.357.78V.778Q1.073.406,0,0Z" transform="translate(8.248 54.4)" fill="#c49214"/>
      <path id="XMLID_115" data-name="XMLID 115" d="M0,.778V9.222q1.283-.373,2.357-.78V0Q1.282.406,0,.778Z" transform="translate(57.735 54.4)" fill="#c49214"/>
      <path id="XMLID_114" data-name="XMLID 114" d="M0,0V8.445q1.131.241,2.357.456V.456Q1.132.241,0,0Z" transform="translate(14.139 56.054)" fill="#c49214"/>
      <path id="XMLID_113" data-name="XMLID 113" d="M0,.456V8.9q1.225-.217,2.357-.457V0Q1.225.241,0,.456Z" transform="translate(51.843 56.054)" fill="#c49214"/>
      <path id="XMLID_112" data-name="XMLID 112" d="M0,0V8.446c.768.1,1.552.2,2.357.28V.28C1.552.194.768.1,0,0Z" transform="translate(20.03 57.05)" fill="#c49214"/>
      <path id="XMLID_111" data-name="XMLID 111" d="M0,.279V8.726c.8-.086,1.588-.18,2.357-.28V0C1.588.1.8.2,0,.279Z" transform="translate(45.952 57.05)" fill="#c49214"/>
      <path id="XMLID_110" data-name="XMLID 110" d="M0,0V8.447q1.161.083,2.357.145V.144Q1.16.084,0,0Z" transform="translate(25.922 57.64)" fill="#c49214"/>
      <path id="XMLID_109" data-name="XMLID 109" d="M0,.144V8.592q1.2-.06,2.357-.145V0Q1.2.083,0,.144Z" transform="translate(40.061 57.64)" fill="#c49214"/>
      <path id="XMLID_108" data-name="XMLID 108" d="M1.178.007C.784.007.391,0,0,0V8.448c.391,0,.784.007,1.178.007s.787,0,1.178-.007V0C1.965,0,1.573.007,1.178.007Z" transform="translate(32.991 57.924)" fill="#c49214"/>
      <path id="XMLID_107" data-name="XMLID 107" d="M56.806,0C53.46,3.015,41.431,5.586,27.1,5.586c-11.205,0-21-1.573-26.341-3.7A2.011,2.011,0,0,0,0,3.329C0,7,13.716,10.413,30.635,10.413S61.269,7,61.269,3.329C61.269,2.065,59.638.935,56.806,0Z" transform="translate(3.535 47.518)" fill="#fcc62d"/>
      <path id="XMLID_106" data-name="XMLID 106" d="M37.7,6.376C22.136,6.376,9.289,3.341,7.336,0,2.765,1.061,0,2.474,0,4.119,0,7.784,13.716,11.2,30.635,11.2S61.269,7.784,61.269,4.119a1.488,1.488,0,0,0-.088-.477C55.562,5.262,47.133,6.376,37.7,6.376Z" transform="translate(0 33.452)" fill="#ffd949"/>
      <path id="XMLID_105" data-name="XMLID 105" d="M53.013,0C49.348,2.921,37.556,5.372,23.565,5.372A92.261,92.261,0,0,1,.8,2.837,2.054,2.054,0,0,0,0,4.322c0,3.667,13.716,7.084,30.635,7.084S61.269,7.988,61.269,4.322C61.269,2.569,58.132,1.079,53.013,0Z" transform="translate(7.07 19.973)" fill="#fcc62d"/>
    </g>
  </g>
</svg>
