<svg xmlns="http://www.w3.org/2000/svg" width="21" height="21" viewBox="0 0 21 21">
  <g id="invoice" transform="translate(-14240.37 -2741.575)">
    <rect id="Rectangle_11788" data-name="Rectangle 11788" width="21" height="21" transform="translate(14240.37 2741.575)" fill="#fff" opacity="0"/>
    <g id="noun_payouts_2994748" transform="translate(14242.624 2742.93)">
      <path id="Path_29630" data-name="Path 29630" d="M14.793,13.172a.4.4,0,1,0-.793,0,1.193,1.193,0,0,0,1.189,1.189.4.4,0,1,0,.793,0,1.189,1.189,0,1,0,0-2.379v-.793a.4.4,0,0,1,.4.4.4.4,0,0,0,.793,0A1.193,1.193,0,0,0,15.982,10.4a.4.4,0,1,0-.793,0,1.189,1.189,0,1,0,0,2.379v.793A.4.4,0,0,1,14.793,13.172Zm1.189-.4a.4.4,0,0,1,0,.793Zm-1.189-1.189a.4.4,0,0,1,.4-.4v.793A.4.4,0,0,1,14.793,11.586Z" transform="translate(-9.639 -7.225)" fill="#daa520"/>
      <path id="Path_29631" data-name="Path 29631" d="M3.793,19.651H14.1a.8.8,0,0,0,.793-.793V10.136h2.379a.8.8,0,0,0,.793-.793V4.982A1.983,1.983,0,0,0,16.083,3H4.586A1.585,1.585,0,0,0,3,4.586V18.858A.8.8,0,0,0,3.793,19.651Zm11.1-14.668a1.189,1.189,0,1,1,2.379,0V9.343H14.893Zm-11.1-.4a.8.8,0,0,1,.793-.793h9.923A1.952,1.952,0,0,0,14.1,4.982V18.858H3.793Z" transform="translate(-3 -3)" fill="#673695"/>
      <path id="Path_29632" data-name="Path 29632" d="M7.614,27.067a.22.22,0,0,0-.067-.036.239.239,0,0,0-.075-.024.4.4,0,0,0-.357.107.4.4,0,1,0,.563,0C7.658,27.1,7.638,27.083,7.614,27.067Z" transform="translate(-5.414 -17.485)" fill="#673695"/>
      <path id="Path_29633" data-name="Path 29633" d="M17.136,27H10.4a.4.4,0,0,0,0,.793h6.74a.4.4,0,1,0,0-.793Z" transform="translate(-7.225 -17.485)" fill="#673695"/>
      <path id="Path_29634" data-name="Path 29634" d="M7.678,31.117c-.02-.016-.04-.032-.063-.048a.22.22,0,0,0-.067-.036.239.239,0,0,0-.075-.024.41.41,0,0,0-.357.107.458.458,0,0,0-.083.131A.4.4,0,0,0,7,31.4a.4.4,0,1,0,.793,0,.4.4,0,0,0-.032-.151A.458.458,0,0,0,7.678,31.117Z" transform="translate(-5.414 -19.901)" fill="#673695"/>
      <path id="Path_29635" data-name="Path 29635" d="M17.136,31H10.4a.4.4,0,1,0,0,.793h6.74a.4.4,0,1,0,0-.793Z" transform="translate(-7.225 -19.9)" fill="#673695"/>
      <path id="Path_29636" data-name="Path 29636" d="M7.678,35.117c-.02-.016-.04-.032-.063-.048a.22.22,0,0,0-.067-.036.239.239,0,0,0-.075-.024.41.41,0,0,0-.357.107.458.458,0,0,0-.083.131A.4.4,0,0,0,7,35.4a.4.4,0,1,0,.793,0,.4.4,0,0,0-.032-.151A.458.458,0,0,0,7.678,35.117Z" transform="translate(-5.414 -22.316)" fill="#673695"/>
      <path id="Path_29637" data-name="Path 29637" d="M17.136,35H10.4a.4.4,0,1,0,0,.793h6.74a.4.4,0,1,0,0-.793Z" transform="translate(-7.225 -22.314)" fill="#673695"/>
      <path id="Path_29638" data-name="Path 29638" d="M7.678,39.123a.415.415,0,0,0-.563,0,.458.458,0,0,0-.083.131A.4.4,0,0,0,7,39.4a.4.4,0,1,0,.793,0,.4.4,0,0,0-.032-.151A.458.458,0,0,0,7.678,39.123Z" transform="translate(-5.414 -24.736)" fill="#673695"/>
      <path id="Path_29639" data-name="Path 29639" d="M17.136,39H10.4a.4.4,0,0,0,0,.793h6.74a.4.4,0,1,0,0-.793Z" transform="translate(-7.225 -24.728)" fill="#673695"/>
    </g>
  </g>
</svg>
