<svg xmlns="http://www.w3.org/2000/svg" width="16" height="12.044" viewBox="0 0 16 12.044">
  <g id="list_1" data-name="list 1" transform="translate(0 -1.978)" opacity="0.6">
    <g id="Group">
      <path id="Vector" d="M11.5,1.6H.8A.8.8,0,1,1,.8,0H11.5a.8.8,0,0,1,0,1.6Z" transform="translate(3.704 12.213)" fill="#fff"/>
      <path id="Vector-2" data-name="Vector" d="M11.5,1.6H.8A.8.8,0,1,1,.8,0H11.5a.8.8,0,0,1,0,1.6Z" transform="translate(3.704 7.202)" fill="#fff"/>
      <path id="Vector-3" data-name="Vector" d="M11.5,1.6H.8A.8.8,0,1,1,.8,0H11.5a.8.8,0,0,1,0,1.6Z" transform="translate(3.704 2.19)" fill="#fff"/>
      <path id="Vector-4" data-name="Vector" d="M2.144,1.072A1.072,1.072,0,1,1,1.072,0,1.072,1.072,0,0,1,2.144,1.072Z" transform="translate(0 1.978)" fill="#fff"/>
      <path id="Vector-5" data-name="Vector" d="M2.144,1.072A1.072,1.072,0,1,1,1.072,0,1.072,1.072,0,0,1,2.144,1.072Z" transform="translate(0 6.928)" fill="#fff"/>
      <path id="Vector-6" data-name="Vector" d="M2.144,1.072A1.072,1.072,0,1,1,1.072,0,1.072,1.072,0,0,1,2.144,1.072Z" transform="translate(0 11.878)" fill="#fff"/>
    </g>
  </g>
</svg>
