<svg xmlns="http://www.w3.org/2000/svg" width="38" height="38" viewBox="0 0 38 38">
  <g id="password" transform="translate(-1725 -574)">
    <rect id="Rectangle_11547" data-name="Rectangle 11547" width="38" height="38" transform="translate(1725 574)" fill="#fff" opacity="0"/>
    <g id="noun_password_770965" transform="translate(1711.645 560.49)">
      <g id="Group_23920" data-name="Group 23920" transform="translate(21.808 19.872)">
        <path id="Path_29932" data-name="Path 29932" d="M42.9,53.633a2.656,2.656,0,0,1-2.656,2.656H24.463a2.656,2.656,0,0,1-2.655-2.656V42.96a2.655,2.655,0,0,1,2.655-2.655H40.247A2.656,2.656,0,0,1,42.9,42.96Z" transform="translate(-21.808 -31.013)" fill="none" stroke="#6129ac" stroke-linecap="round" stroke-linejoin="round" stroke-miterlimit="10" stroke-width="3"/>
        <path id="Path_29933" data-name="Path 29933" d="M32.17,28.341V25.811s0-5.939,5.849-5.93c0,0,5.643-.5,5.821,5.842v2.618" transform="translate(-27.458 -19.872)" fill="none" stroke="#6129ac" stroke-linecap="round" stroke-linejoin="round" stroke-miterlimit="10" stroke-width="3"/>
        <circle id="Ellipse_30" data-name="Ellipse 30" cx="1.708" cy="1.708" r="1.708" transform="translate(8.839 17.964)" fill="#daa520"/>
        <line id="Line_1" data-name="Line 1" x1="0.015" y2="3.976" transform="translate(10.54 14.52)" fill="none" stroke="#daa520" stroke-linecap="round" stroke-linejoin="round" stroke-miterlimit="10" stroke-width="1.5"/>
      </g>
    </g>
  </g>
</svg>
