<svg xmlns="http://www.w3.org/2000/svg" width="22" height="22" viewBox="0 0 22 22">
  <g id="reedem" transform="translate(-4207 148)">
    <rect id="Rectangle_12068" data-name="Rectangle 12068" width="22" height="22" transform="translate(4207 -148)" fill="#fff" opacity="0"/>
    <g id="noun_withdraw_3364250" transform="translate(4209.355 -145.528)">
      <g id="Group_23747" data-name="Group 23747" transform="translate(0 -280.067)">
        <path id="Path_29738" data-name="Path 29738" d="M3.44,280.6a.8.8,0,0,0-.8.8v2.117a.8.8,0,0,0,.8.793h.529a.265.265,0,0,0,0-.529H3.44a.258.258,0,0,1-.266-.264V281.39a.26.26,0,0,1,.266-.266H13.495a.258.258,0,0,1,.264.266v2.117a.257.257,0,0,1-.264.264h-.529a.265.265,0,0,0,0,.529h.529a.8.8,0,0,0,.793-.793V281.39a.8.8,0,0,0-.793-.8Zm.529,1.588a.265.265,0,0,0,0,.53h7.672v8.467a.258.258,0,0,1-.264.266h-.8v-1.854a1.322,1.322,0,1,0-2.644,0v2.646a3.7,3.7,0,0,0,.759,2.117H8.2a.265.265,0,0,0-.264.264v1.587a.265.265,0,0,0,.264.264h5.848a.265.265,0,0,0,.238-.264v-1.587a.265.265,0,0,0-.266-.264h-.47l.731-3.653a2.288,2.288,0,0,0-.577-2.062l-.529-.705a.265.265,0,1,0-.423.317l.529.705a1.76,1.76,0,0,1,.482,1.642l-.751,3.756H9.381a3.461,3.461,0,0,1-.914-2.118v-2.646a.793.793,0,1,1,1.586,0v2.117a.265.265,0,0,0,.266.264h1.059a.8.8,0,0,0,.793-.793v-8.467h.8a.265.265,0,0,0,0-.53Zm1.055,1.055a.264.264,0,0,0-.262.27v7.672a.8.8,0,0,0,.8.793H7.143a.265.265,0,1,0,0-.527H5.557a.26.26,0,0,1-.266-.266v-7.672a.265.265,0,0,0-.268-.27Zm.8.269v1.323a.265.265,0,1,0,.529,0v-1.323a.265.265,0,1,0-.529,0Zm4.762,0v1.323a.265.265,0,1,0,.529,0v-1.323a.265.265,0,1,0-.529,0ZM7.676,284.83a1.06,1.06,0,0,0-1.021.793h-.57a.265.265,0,0,0,0,.529h.571a1.056,1.056,0,0,0,2.079-.266.529.529,0,1,1,.529.529.265.265,0,0,0,0,.53,1.062,1.062,0,0,0,1.021-.793h.565a.265.265,0,1,0,0-.529h-.565a1.056,1.056,0,0,0-2.079.264.529.529,0,1,1-.529-.527.265.265,0,1,0,0-.529Zm-1.855,2.116v2.381a.265.265,0,0,0,.265.265,1.055,1.055,0,0,1,.862.444.265.265,0,1,0,.43-.307,1.573,1.573,0,0,0-1.028-.645v-2.138a.265.265,0,1,0-.529,0Zm4.763,0v1.3a.265.265,0,1,0,.529,0v-1.3a.265.265,0,1,0-.529,0Zm-2.116,7.939h5.291v1.056H8.467Z" fill="#b3b3b3"/>
      </g>
    </g>
  </g>
</svg>
