<svg xmlns="http://www.w3.org/2000/svg" width="70" height="70" viewBox="0 0 70 70">
  <g id="tasker_earnings" data-name="tasker earnings" transform="translate(-903 -195)">
    <g id="Group">
      <path id="Vector" d="M70,35A35.063,35.063,0,1,1,58.694,9.243,35,35,0,0,1,70,35Z" transform="translate(903 195)" fill="#f0cd00"/>
      <path id="Vector-2" data-name="Vector" d="M67.394,34.976A35,35,0,0,1,33.7,69.951,35,35,0,0,1,33.7,0,35,35,0,0,1,67.394,34.976Z" transform="translate(905.606 195.025)" fill="#ffde50"/>
      <path id="Vector-3" data-name="Vector" d="M53.886,4.433,4.433,53.886A35.15,35.15,0,0,1,0,47.907L47.909,0A34.988,34.988,0,0,1,53.886,4.433Z" transform="translate(907.809 199.81)" fill="#ffea94"/>
      <path id="Vector-4" data-name="Vector" d="M54.244,8.863,8.861,54.246A34.953,34.953,0,0,1,0,49.154L49.154,0A34.89,34.89,0,0,1,54.244,8.863Z" transform="translate(916.342 208.341)" fill="#ffea94"/>
      <path id="Vector-5" data-name="Vector" d="M54.394,27.2A27.2,27.2,0,0,1,0,27.531c0-.111,0-.223,0-.334A27.2,27.2,0,0,1,27.2,0c.111,0,.224,0,.336,0a27.07,27.07,0,0,1,15.331,4.96,27.378,27.378,0,0,1,7.493,7.97A27.066,27.066,0,0,1,54.394,27.2Z" transform="translate(910.803 202.803)" fill="#faa300"/>
      <path id="Vector-6" data-name="Vector" d="M46.427,7.966,7.966,46.427A27.1,27.1,0,0,1,0,27.531c0-.111,0-.223,0-.334A27.2,27.2,0,0,1,27.2,0c.111,0,.224,0,.336,0a27.07,27.07,0,0,1,15.331,4.96A27.446,27.446,0,0,1,46.427,7.966Z" transform="translate(910.803 202.803)" fill="#ffbd00"/>
      <path id="Vector-7" data-name="Vector" d="M28.733,27.2a27.2,27.2,0,0,1-27.2,27.2q-.774,0-1.536-.043A27.2,27.2,0,0,0,25.66,27.2,27.2,27.2,0,0,0,0,.043Q.763,0,1.536,0A27.2,27.2,0,0,1,28.733,27.2Z" transform="translate(936.464 202.803)" fill="#f68e00"/>
    </g>
    <path id="Vector-8" data-name="Vector" d="M29.851,8.7H25.088a11.491,11.491,0,0,0-1.236-2.99h6a2.857,2.857,0,0,0,0-5.714H2.857a2.857,2.857,0,0,0,0,5.714H13.884a5.85,5.85,0,0,1,5.1,2.99H2.857a2.857,2.857,0,0,0,0,5.714H18.983a5.85,5.85,0,0,1-5.1,2.99H2.857a2.857,2.857,0,0,0-2.08,4.816L16.316,38.718A2.857,2.857,0,1,0,20.475,34.8l-11-11.677h4.41a11.582,11.582,0,0,0,11.2-8.7h4.763a2.857,2.857,0,0,0,0-5.714Z" transform="translate(918.954 212.967)" fill="#f68e00"/>
    <path id="Vector-9" data-name="Vector" d="M29.85,8.7H25.088a11.491,11.491,0,0,0-1.236-2.99h6A2.857,2.857,0,0,0,29.85,0H2.857a2.857,2.857,0,0,0,0,5.714H13.884a5.85,5.85,0,0,1,5.1,2.99H2.857a2.857,2.857,0,0,0,0,5.714H18.983a5.85,5.85,0,0,1-5.1,2.99H2.857a2.857,2.857,0,0,0-2.08,4.816L16.316,38.718A2.857,2.857,0,1,0,20.475,34.8l-11-11.677h4.41a11.582,11.582,0,0,0,11.2-8.7h4.763a2.857,2.857,0,1,0,0-5.714Z" transform="translate(922.526 212.967)" fill="#ffea94"/>
  </g>
</svg>
