<svg xmlns="http://www.w3.org/2000/svg" width="16.734" height="16.734" viewBox="0 0 16.734 16.734">
  <g id="transaction_1" data-name="transaction 1" transform="translate(-0.133 -0.133)" opacity="0.6">
    <g id="_06-Coin" data-name="06-Coin">
      <g id="filled">
        <path id="Vector" d="M16.618,4.9,14.493,2.773a.4.4,0,0,0-.68.282v.664h-.8V1.461A1.463,1.463,0,0,0,11.555,0H5.18A1.463,1.463,0,0,0,3.719,1.461v8.633h-.8V9.43a.4.4,0,0,0-.68-.282L.117,11.273a.4.4,0,0,0,0,.563l2.125,2.125a.4.4,0,0,0,.68-.282v-.664h.8v2.258A1.463,1.463,0,0,0,5.18,16.734h6.375a1.463,1.463,0,0,0,1.461-1.461V6.641h.8V7.3a.4.4,0,0,0,.68.282l2.125-2.125a.4.4,0,0,0,0-.563ZM5.18.8h6.375a.665.665,0,0,1,.664.664v.664h-7.7V1.461A.665.665,0,0,1,5.18.8Zm6.375,15.141H5.18a.665.665,0,0,1-.664-.664v-.664h7.7v.664a.665.665,0,0,1-.664.664Zm3.055-9.595v-.1a.4.4,0,0,0-.4-.4H11.023a.4.4,0,1,0,0,.8h1.2v7.172h-7.7v-.8h1.2a.4.4,0,1,0,0-.8H2.523a.4.4,0,0,0-.4.4v.1L.962,11.555l1.163-1.163v.1a.4.4,0,0,0,.4.4H5.711a.4.4,0,1,0,0-.8h-1.2V2.922h7.7v.8h-1.2a.4.4,0,1,0,0,.8h3.188a.4.4,0,0,0,.4-.4v-.1L15.772,5.18Z" transform="translate(0.133 0.133)" fill="#fff"/>
      </g>
    </g>
    <g id="rupee-indian_1" data-name="rupee-indian 1" transform="translate(5.445 5.445)">
      <g id="Group">
        <path id="Vector-2" data-name="Vector" d="M3.857,1.384a.135.135,0,0,0-.1-.039H3.016A1.5,1.5,0,0,0,2.738.72H3.749A.133.133,0,0,0,3.888.582V.139A.133.133,0,0,0,3.749,0H.139A.134.134,0,0,0,0,.139V.716a.133.133,0,0,0,.041.1.133.133,0,0,0,.1.041H.768q.915,0,1.163.49H.139A.134.134,0,0,0,0,1.484v.443a.134.134,0,0,0,.139.139H1.992a.848.848,0,0,1-.445.542,1.958,1.958,0,0,1-.922.187H.139a.133.133,0,0,0-.1.041.133.133,0,0,0-.041.1v.551a.13.13,0,0,0,.039.1Q.872,4.465,2.2,6.057a.128.128,0,0,0,.108.052h.846a.126.126,0,0,0,.126-.078.119.119,0,0,0-.017-.148Q2,4.33,1.271,3.558a2.2,2.2,0,0,0,1.2-.477,1.622,1.622,0,0,0,.56-1.015h.729A.134.134,0,0,0,3.9,1.927V1.484A.135.135,0,0,0,3.857,1.384Z" transform="translate(1.106)" fill="#fff"/>
      </g>
    </g>
  </g>
</svg>
