<svg xmlns="http://www.w3.org/2000/svg" width="38" height="38" viewBox="0 0 38 38">
  <g id="user_name" data-name="user name" transform="translate(-3220 -4376)">
    <rect id="Rectangle_11547" data-name="Rectangle 11547" width="38" height="38" transform="translate(3220 4376)" fill="#fff" opacity="0"/>
    <g id="Icon_User" transform="translate(3226.384 4382.384)">
      <path id="Path_5" data-name="Path 5" d="M25.1,22.846l-.7-3.31A6.589,6.589,0,0,0,21.448,15.3l-4.131-2.6a5.611,5.611,0,0,0,1.127-2.985l.322-3.093A5.864,5.864,0,0,0,12.917,0h-.644A6.021,6.021,0,0,0,6.318,6.675L6.64,9.768a6.519,6.519,0,0,0,1.127,2.985l-4.131,2.6a6.656,6.656,0,0,0-2.9,4.178l-.7,3.31a3.566,3.566,0,0,0,3.434,4.287H21.662A3.513,3.513,0,0,0,25.1,22.846ZM9.806,3.8a3.27,3.27,0,0,1,2.468-1.085h.644A3.27,3.27,0,0,1,15.385,3.8a3.2,3.2,0,0,1,.8,2.55l-.322,3.093a3.287,3.287,0,0,1-6.545,0L9,6.349A3.2,3.2,0,0,1,9.806,3.8Zm12.5,20.3a.809.809,0,0,1-.644.326H3.475a.914.914,0,0,1-.644-.326.863.863,0,0,1-.161-.705l.7-3.31a3.829,3.829,0,0,1,1.717-2.442l4.882-3.093a5.982,5.982,0,0,0,2.575.6,5.806,5.806,0,0,0,2.575-.6L20,17.636a3.971,3.971,0,0,1,1.717,2.442l.7,3.31A.586.586,0,0,1,22.306,24.094Z" transform="translate(0.026)" fill="#6129ac"/>
      <path id="Path_6" data-name="Path 6" d="M29.524,38.713H26.841A1.336,1.336,0,0,1,25.5,37.357h0A1.336,1.336,0,0,1,26.841,36h2.682a1.336,1.336,0,0,1,1.341,1.357h0A1.336,1.336,0,0,1,29.524,38.713Z" transform="translate(-11.805 -16.465)" fill="#daa520"/>
    </g>
  </g>
</svg>
