<svg xmlns="http://www.w3.org/2000/svg" width="452.888" height="692.77" viewBox="0 0 452.888 692.77">
  <g id="add_employe_image" data-name="add employe image" transform="translate(-324 -266.13)">
    <path id="Subtract" d="M654.031,958.9H324V373.609a213.243,213.243,0,0,1,41.9-4.156c3.8,0,7.635.1,11.4.3a158.2,158.2,0,0,1,79.277-87.272,162.534,162.534,0,0,1,34.9-12.234,166.523,166.523,0,0,1,36.849-4.121,168.474,168.474,0,0,1,52.444,8.371A173.208,173.208,0,0,1,668.8,340.136a168.439,168.439,0,0,1,23.144,48.38,165.1,165.1,0,0,1,6.68,52.286,159.108,159.108,0,0,1-10.492,51.862,174.445,174.445,0,0,1,45.051,35.582,169.31,169.31,0,0,1,33.486,55.322,167.665,167.665,0,0,1,8.064,30.7,164.789,164.789,0,0,1,2.078,31.487,160.987,160.987,0,0,1-4.061,31.352,158.657,158.657,0,0,1-49.99,83.361,302.155,302.155,0,0,1-2.394,47.177,298.05,298.05,0,0,1-9.884,46.544A291.534,291.534,0,0,1,667.7,941.359c-4.32,6.007-8.918,11.909-13.667,17.541Z" fill="#e1e7ff"/>
    <g id="Group_215" data-name="Group 215">
      <ellipse id="Ellipse_28" data-name="Ellipse 28" cx="122.149" cy="15.318" rx="122.149" ry="15.318" transform="translate(401.767 899.985)" fill="#aebeff"/>
      <g id="Group">
        <g id="Group-2" data-name="Group">
          <g id="OBJECTS">
            <g id="Group-3" data-name="Group">
              <g id="Group-4" data-name="Group">
                <g id="Group-5" data-name="Group">
                  <path id="Vector" d="M18.691,33.774C13.685,40.4,5.027,37.639,2.479,32.955c-.16-.285-1.942-3.669-2.441-15C-.478,6.648,4.314-.192,5.74,0s.73,4.7.214,6.84c-.445,1.87-.891,6.359-.125,8.906a3.916,3.916,0,0,0,.428,1c.053-.321.125-.641.2-.962C8.34,6.933,13.685,2.373,15.841,1.571a1.265,1.265,0,0,1,.713-.107c.249.053.5.338.748.8C18.424,4.3,19.635,9.729,20.633,13.4c.232.855.5,1.888.713,3.064.16.8.3,1.656.41,2.547C22.325,23.586,22.076,29.286,18.691,33.774Z" transform="translate(617.001 294.348)" fill="#f16e6a"/>
                  <path id="Vector-2" data-name="Vector" d="M9.638,18.666C3.367,16.066,4.9,2.6,4.9,2.6L0,0,2.993.125,3.6.142,18.51.8c.16.8.3,1.656.41,2.547C7.91,8.193,9.638,18.666,9.638,18.666Z" transform="translate(619.837 309.973)" fill="#ef5760"/>
                  <path id="Vector-3" data-name="Vector" d="M7.145.8c-.374.766-.944,1.461-1.372,2.226A43.615,43.615,0,0,0,3.724,7.11,35.21,35.21,0,0,0,.981,16.39c-.089.641-1.015.445-.98-.178A33.193,33.193,0,0,1,2.174,6.38C2.887,4.6,4.045,1.731,5.684.128A1.265,1.265,0,0,1,6.4.021C6.628.074,6.877.359,7.145.8Z" transform="translate(627.158 295.792)" fill="#ef5760"/>
                  <path id="Vector-4" data-name="Vector" d="M5.84,28.041a5.384,5.384,0,0,0,5.113-4.916,7.613,7.613,0,0,0-.552-4.132A29.691,29.691,0,0,0,8.21,15.431a3.64,3.64,0,0,1-.232-3.794c.962-1.817,2.191-4.4,2.191-5.575,0-1.906-1.229-6.8-3.438-5.967C4.5.932,4.665,6.757,4.665,6.757A41.8,41.8,0,0,0,.229,17.533c-.837,3.259.695,8.567,3.438,10.01A4.145,4.145,0,0,0,5.84,28.041Z" transform="translate(618.147 302.967)" fill="#f48b7f"/>
                </g>
                <g id="Group-6" data-name="Group">
                  <path id="Vector-5" data-name="Vector" d="M83.407,84.425c-7.785,11.524-40.172,43.37-60.374,45.882C2.867,132.819-2.211,116.254.8,108.079c2.85-7.748,37.945-30.172,53.836-42.818C61.156,50.78,75.444,7.552,75.444,7.552L75.034.819,95.628,0l-.606,8.567C98.514,26.307,94.47,68.075,83.407,84.425Z" transform="translate(542.077 327.196)" fill="#fff"/>
                  <path id="Vector-6" data-name="Vector" d="M.56,2.318c1.764,1.211,3.9,2.654,5.362,3.669A1.264,1.264,0,0,0,7.9,4.9C7.829,2.87,6.421.305,1.344,0A1.268,1.268,0,0,0,.56,2.318Z" transform="translate(601.676 393.612)" fill="#fffcf6"/>
                  <path id="Vector-7" data-name="Vector" d="M2.145.353A1.272,1.272,0,0,0,.025,1.528c.356,1.781,1.087,3.74,2.654,4.578a4.955,4.955,0,0,0,3.046.481A1.266,1.266,0,0,0,6.42,4.414Z" transform="translate(597.312 397.252)" fill="#fffcf6"/>
                  <path id="Vector-8" data-name="Vector" d="M20.594,0l-.606,8.567L.41,7.552,0,.819Z" transform="translate(617.129 327.197)" fill="#fffcf6"/>
                </g>
              </g>
              <g id="Group-7" data-name="Group">
                <g id="Group-8" data-name="Group">
                  <path id="Vector-9" data-name="Vector" d="M135.82,325.483l-27.987,19.7-5.1,2.529-12.274,6.109L70.582,53.042l-.249-3.188-.071.018-4.186.16-.891.018L47.156,336.971,15.41,349.849l-4.151,1.692L0,356.1,10.457,16.333,10.9,1.371,47.69.891,53.5.819,99.353.232,117.559,0l.944,17.473,1.461,27.536Z" transform="translate(450.205 552.509)" fill="#6f2ae5"/>
                  <path id="Vector-10" data-name="Vector" d="M20.629,45.009C1.817,25.2.036,6.323,0,.232L18.207,0l.944,17.473Z" transform="translate(549.54 552.509)" fill="#5018b0"/>
                  <path id="Vector-11" data-name="Vector" d="M4.668,0,4.187,39.666,0,39.826,1.6,1.211Z" transform="translate(516.28 562.715)" fill="#5018b0"/>
                  <path id="Vector-12" data-name="Vector" d="M42.239,0l-28.2,33.4L4.151,349.03,0,350.7,9.442,33.4,36.413.071Z" transform="translate(461.393 553.56)" fill="#5018b0"/>
                  <path id="Vector-13" data-name="Vector" d="M37.518,295.382l-5.1,2.529L9.139,3.224.267,3.242,0,.053,13.717,0Z" transform="translate(520.448 602.541)" fill="#5018b0"/>
                </g>
                <g id="Group-9" data-name="Group">
                  <path id="Vector-14" data-name="Vector" d="M86.972,31.205C81.7,31.205,42.328,29.852,18.4,29,7.643,28.623,0,28.338,0,28.338,10.422,17.954,22.108,1.835,45.356,0c4.935,3.064,9.388,5.824,13.4,8.354C73.165,17.491,81.948,23.778,86.972,31.205Z" transform="translate(540.668 877.992)" fill="#49303b"/>
                  <path id="Vector-15" data-name="Vector" d="M58.753,8.371,18.4,29C7.643,28.623,0,28.338,0,28.338,10.422,17.954,22.108,1.835,45.356,0,50.291,3.081,54.745,5.842,58.753,8.371Z" transform="translate(540.668 877.974)" fill="#3a2530"/>
                </g>
                <g id="Group-10" data-name="Group">
                  <path id="Vector-16" data-name="Vector" d="M83.195,30.279c-5.184,0-41.562-1.247-64.472-2.066C7.839,27.839,0,27.554,0,27.554,10.422,17.17,24.46,1.835,47.708,0c4.133,2.974,7.732,5.575,10.9,7.89C72.363,17.9,77.975,22.567,83.195,30.279Z" transform="translate(450.205 881.056)" fill="#49303b"/>
                  <path id="Vector-17" data-name="Vector" d="M58.61,7.89,18.723,28.213C7.839,27.839,0,27.554,0,27.554,10.422,17.17,24.46,1.835,47.708,0,51.841,2.974,55.439,5.575,58.61,7.89Z" transform="translate(450.205 881.056)" fill="#3a2530"/>
                </g>
              </g>
              <g id="Group-11" data-name="Group">
                <path id="Vector-18" data-name="Vector" d="M108.046,17.473,0,16.333.463,1.354,107.12,0Z" transform="translate(460.573 552.74)" fill="#3a2530"/>
                <path id="Vector-19" data-name="Vector" d="M113.868,137.389H8.013S.869,134.325.067,129.837c-.819-4.488,6.11-6.733,6.11-6.733s-.606-44.047-.819-63.818c-.2-19.771.41-51.8,8.765-57.495,4.329-2.957,17.868-1.763,29.929.071C55.329,3.59,65.323,5.87,65.323,5.87s10.707-.321,20.594-.819c3.634-.178,7.144-.392,9.994-.606,10.6-.819,17.743.819,20.594,11.613,2.85,10.811-2.031,107.883-2.031,107.883s6.93,3.669,7.749,5.717C123.042,131.671,120.192,137.389,113.868,137.389Z" transform="translate(453.095 423.509)" fill="#fff"/>
                <path id="Vector-20" data-name="Vector" d="M3.652,121.22H0C.3,105.653,2.173,5.928,1.8.3,4.24-.52,4.65.6,4.65.6S5.594,100.007,3.652,121.22Z" transform="translate(514.997 439.678)" fill="#d8d8d8"/>
                <path id="Vector-21" data-name="Vector" d="M43.389,14.463c-2.3,11.773-9.941,23.244-9.941,23.244L22.439,22.87a122.688,122.688,0,0,0-11.17,13.768C6.227,32.042.865,22.264.1,11.7A30.279,30.279,0,0,1,1.328,0C12.6,1.728,22.6,4.008,22.6,4.008s10.707-.321,20.594-.819A27.908,27.908,0,0,1,43.389,14.463Z" transform="translate(495.837 425.354)" fill="#fffcf6"/>
                <path id="Vector-22" data-name="Vector" d="M.162,0,23,.606V16.511C23,20.18,12.81,26.7,12.81,26.7s-9.388-2.85-11.419-7.142C-.658,15.3.162,0,.162,0Z" transform="translate(535.393 476.063)" fill="#fffcf6"/>
                <path id="Vector-23" data-name="Vector" d="M0,3.562.251,11.15a3.339,3.339,0,0,0,3.314,3.242l16.568.214a3.361,3.361,0,0,0,3.4-3.42l-.16-7.908A3.349,3.349,0,0,0,19.99,0L3.333.107A3.354,3.354,0,0,0,0,3.562Z" transform="translate(505.055 558.529)" fill="#fcb912"/>
              </g>
              <g id="Group-12" data-name="Group">
                <g id="Group-13" data-name="Group">
                  <path id="Vector-24" data-name="Vector" d="M43.083,10.777s3.723,2.85,4.382,6.376c.659,3.509-1.942,10.758-1.942,10.758l-2.369,1.354L16.61,44.511l-4.65,2.672s-4.543-8.87-8.355-15.745C-.279,24.456-1.33,21.089,1.966,14.25,5.28,7.41,14.454,4.2,18.837,2.263S36.58-1.157,37.809,1.248a39.6,39.6,0,0,1,2.245,6.074s7.7,2.6,7.749,4.168C47.875,13.074,43.083,10.777,43.083,10.777Z" transform="translate(499.545 370.21)" fill="#49303b"/>
                  <path id="Vector-25" data-name="Vector" d="M39.527,23.789c-.16.427-.321.855-.481,1.265L12.5,40.3c-4.2-3.384-7.785-9.778-9.691-14.285-2.672-6.341,1.764-13.7,1.764-13.7S1.279,14.313.3,14.224c-1-.071.232-4.364,7.8-8.87S29.515-.613,31.511.224s.534,5.806.534,5.806,7.874,4.9,8.8,7.57C41.736,16.29,39.634,23.5,39.527,23.789Z" transform="translate(503.671 374.439)" fill="#3a2530"/>
                </g>
                <g id="Group-14" data-name="Group">
                  <path id="Vector-26" data-name="Vector" d="M71.526,44.649a41.532,41.532,0,0,1-4.133,7.605C56.33,68.463,33.83,79.488,17.334,81.607,3.474,75.284,0,71.419,0,71.419l12.435-16.1s30.232-4.684,42.417-16.529C65.612,28.352,67.482,13.657,68.337,5.411c.232-2.262.338-4.1.374-5.361C74.43-.36,76,1.9,76,1.9s.249,1.193.534,3.277C77.494,12.2,77.227,30.721,71.526,44.649Z" transform="translate(446.232 445.645)" fill="#732de5"/>
                  <path id="Vector-27" data-name="Vector" d="M8.195,5.179A27.159,27.159,0,0,1,0,5.411C.232,3.149.338,1.314.374.05,6.093-.36,7.66,1.9,7.66,1.9S7.91,3.1,8.195,5.179Z" transform="translate(514.587 445.645)" fill="#5117b6"/>
                  <path id="Vector-28" data-name="Vector" d="M0,5.2c-.036.232,2.067,5.13,4.739,5.967,2.423.766,4.436.232,5.5-.837S13.682,6.8,13.451,4.751C13.219,2.685,8.409-.219,6.414.013,4.436.227.624,1.83,0,5.2Z" transform="translate(511.986 437.222)" fill="#732de5"/>
                  <path id="Vector-29" data-name="Vector" d="M67.393,0C56.33,16.208,33.83,27.233,17.334,29.353,3.474,23.03,0,19.165,0,19.165l12.435-16.1L4.169,18.15S7.838,21,18.349,26.111C21.52,26,48.331,21.569,67.393,0Z" transform="translate(446.214 497.882)" fill="#5117b6"/>
                </g>
                <g id="Group-15" data-name="Group">
                  <path id="Vector-30" data-name="Vector" d="M26.02,3.041C17.665-2.481,5.373-.432,1.472,8.776c-.036.071-3.723,4.952.713,15.068A36.573,36.573,0,0,0,7.636,32.3s8.622-8.638,11.473-8.638,8.319,8.175,8.106,7.873c-.2-.3,8.034-9.4,6.271-17.758A17.953,17.953,0,0,0,26.02,3.041Z" transform="translate(500.539 416.614)" fill="#fff"/>
                  <path id="Vector-31" data-name="Vector" d="M15.049,21.142C11.985,21.035,4.235,20.127.067,9.921-.539,6.857,2.917-1.087,13.428.125,23.938,1.354,27.394,7.872,27.8,10.42,28.2,12.984,23.4,21.445,15.049,21.142Z" transform="translate(504.188 418.016)" fill="#fffcf6"/>
                </g>
                <g id="Group-16" data-name="Group">
                  <g id="Group-17" data-name="Group">
                    <path id="Vector-32" data-name="Vector" d="M6.627.107c4.935-.891,4.952,4.008,3.652,6.715-1.3,2.69-2.387,5.486-7.393,6.127-2.227.285-2.886-1-2.886-1S1.158,1.086,6.627.107Z" transform="translate(537.301 396.251)" fill="#f48b7f"/>
                    <path id="Vector-33" data-name="Vector" d="M6.841,5.573S8.533,1.619,7.072.3,2.637,2.207.909,5.876c.837-.659,2.4.053,2.067,1.069A4.527,4.527,0,0,1,0,9.67C2.4,9.937,4.632,8,4.828,6.481,5.006,4.985,2.405,4.7,2.405,4.7S4.667,1.476,5.7,1.9C6.752,2.3,6.841,5.573,6.841,5.573Z" transform="translate(539.136 397.927)" fill="#ef5760"/>
                  </g>
                  <g id="Group-18" data-name="Group">
                    <path id="Vector-34" data-name="Vector" d="M21.5,20.875a30.966,30.966,0,0,0-.267,5,4.344,4.344,0,0,1-1.211,3.188c-3.991,4.114-7.981,5.343-10.992,4.257A15.71,15.71,0,0,1,.785,26.948a4.492,4.492,0,0,1-.249-4.667,29.161,29.161,0,0,0,3.029-9.3A56.706,56.706,0,0,0,3.992,0,96.253,96.253,0,0,1,23.107,12.236,77.774,77.774,0,0,0,21.5,20.875Z" transform="translate(507.104 404.817)" fill="#f48b7f"/>
                    <path id="Vector-35" data-name="Vector" d="M19.543,12.236a80.986,80.986,0,0,0-1.586,8.656A20.787,20.787,0,0,1,8.8,19.984a18.882,18.882,0,0,1-8.8-7A56.706,56.706,0,0,0,.428,0,96.254,96.254,0,0,1,19.543,12.236Z" transform="translate(510.65 404.8)" fill="#ef5760"/>
                  </g>
                  <g id="Group-19" data-name="Group">
                    <path id="Vector-36" data-name="Vector" d="M31.692,12.254c0,5.9-.5,19.788-4.935,22.905-5.665,3.99-18.349.623-22.179-4.9C1.728,26.147.57,16.547.178,11.987.053,10.437,0,9.476,0,9.476c1.835-2.6,10.689-2.3,15.143-2.3,4.436,0,7.66-2.458,9.78-7.178.481,4.577,6.734,9.618,6.734,9.618S31.692,10.633,31.692,12.254Z" transform="translate(509.546 383.854)" fill="#f48b7f"/>
                    <path id="Vector-37" data-name="Vector" d="M31.692,12.254c-4.721-.178-7.144-6.216-7.144-6.216a11.033,11.033,0,0,1-10.867,5.13,42.842,42.842,0,0,0-13.5.819C.053,10.437,0,9.476,0,9.476c1.835-2.6,10.689-2.3,15.143-2.3,4.436,0,7.66-2.458,9.78-7.178.481,4.578,6.734,9.618,6.734,9.618S31.692,10.633,31.692,12.254Z" transform="translate(509.546 383.854)" fill="#f16e6a"/>
                  </g>
                  <g id="Group-20" data-name="Group">
                    <path id="Vector-38" data-name="Vector" d="M4.287.08C-.666-.686-.559,4.213.813,6.884c1.372,2.654,2.53,5.415,7.553,5.949,2.245.232,2.868-1.069,2.868-1.069S9.792.935,4.287.08Z" transform="translate(502.07 396.723)" fill="#f48b7f"/>
                    <path id="Vector-39" data-name="Vector" d="M.923,5.592S-.876,1.674.549.32s4.489,1.8,6.306,5.415C6,5.094,4.451,5.86,4.807,6.857A4.54,4.54,0,0,0,7.853,9.493c-2.387.321-4.667-1.567-4.9-3.064S5.323,4.6,5.323,4.6,2.99,1.425,1.956,1.87.923,5.592.923,5.592Z" transform="translate(503.563 398.406)" fill="#ef5760"/>
                  </g>
                  <g id="Group-21" data-name="Group">
                    <g id="Group-22" data-name="Group">
                      <path id="Vector-40" data-name="Vector" d="M0,3.945A8.338,8.338,0,0,1,4.276,2.36,11.669,11.669,0,0,1,8.3,2.965S7.179-.187,4.062.009C.962.223,0,3.945,0,3.945Z" transform="translate(531.725 397.489)" fill="#49303b"/>
                      <path id="Vector-41" data-name="Vector" d="M8.622,3.125a8.5,8.5,0,0,0-4.507-.712A11.078,11.078,0,0,0,0,3.641S1.479.364,4.115.026A4.156,4.156,0,0,1,8.622,3.125Z" transform="translate(531.814 391.523)" fill="#49303b"/>
                    </g>
                    <g id="Group-23" data-name="Group">
                      <path id="Vector-42" data-name="Vector" d="M8.3,3.945A8.338,8.338,0,0,0,4.026,2.36,11.669,11.669,0,0,0,0,2.965S1.122-.187,4.24.009C7.34.223,8.3,3.945,8.3,3.945Z" transform="translate(516.743 397.489)" fill="#49303b"/>
                      <path id="Vector-43" data-name="Vector" d="M0,3.125a10.862,10.862,0,0,1,5.148-.712A13.69,13.69,0,0,1,9.834,3.641S8.141.364,5.148.026A4.644,4.644,0,0,0,0,3.125Z" transform="translate(516.476 391.523)" fill="#49303b"/>
                    </g>
                    <g id="Group-24" data-name="Group">
                      <path id="Vector-44" data-name="Vector" d="M1.9,0S-.4,4.061.062,6.733s3.67,4.132,3.67,4.132A8.015,8.015,0,0,1,1.594,6.2,26.368,26.368,0,0,1,1.9,0Z" transform="translate(528.457 394.861)" fill="#ef5760"/>
                      <path id="Vector-45" data-name="Vector" d="M2.821.456C2.981-.506-.493.26.06.866.63,1.471,2.661,1.382,2.821.456Z" transform="translate(527.016 405.003)" fill="#ef5760"/>
                    </g>
                    <path id="Vector-46" data-name="Vector" d="M0,0S1.015,4.738,5.148,4.952C9.8,5.183,11.116.623,11.116.623,11.027.623,6.787,4.168,0,0Z" transform="translate(522.39 407.81)" fill="#ef5760"/>
                  </g>
                </g>
              </g>
              <g id="Group-25" data-name="Group">
                <g id="Group-26" data-name="Group">
                  <path id="Vector-47" data-name="Vector" d="M0,.161S10.974-.747,13.913,1.747a16.357,16.357,0,0,1,3.135,3.972,19.4,19.4,0,0,0,5.594,5.949,4.551,4.551,0,0,1,1.55,1.6c.909,1.924-2.939,1.817-7.357-.338C12.435,10.795,0,.161,0,.161Z" transform="translate(442.616 566.454)" fill="#ef5760"/>
                  <path id="Vector-48" data-name="Vector" d="M31.586,25.256c-1.265,1.069-3.224-2.8-5.576-6.27-2.3-3.064-2.779-4.346-5.1-5.183a5.936,5.936,0,0,0-.944-.267c3.919,5.717,8.658,14.391,7.678,15.229a2.9,2.9,0,0,1-1.906.41,9.722,9.722,0,0,1-1.853-.267h-.018s-3.349,1.389-4.614.695a11.5,11.5,0,0,1-2.405.374,7.262,7.262,0,0,1-2.619-.374A19.807,19.807,0,0,1,11.954,29C8.5,27.714,2.316,23.368,0,6.145,1.817,2.369,6.7,0,6.7,0s3.616,3.081,7.055,3.936C27.773,8.015,33.4,23.725,31.586,25.256Z" transform="translate(433.156 564.033)" fill="#f48b7f"/>
                  <path id="Vector-49" data-name="Vector" d="M11.58,13.733a9.721,9.721,0,0,1-1.853-.267H9.709S2.512,6.127,0,0A170.517,170.517,0,0,1,11.58,13.733Z" transform="translate(447.319 579.493)" fill="#ef5760"/>
                  <path id="Vector-50" data-name="Vector" d="M7.892,9.493a11.5,11.5,0,0,1-2.4.374A38.051,38.051,0,0,1,0,0,116.027,116.027,0,0,0,7.892,9.493Z" transform="translate(444.54 584.16)" fill="#ef5760"/>
                  <path id="Vector-51" data-name="Vector" d="M4.881,6.555A19.807,19.807,0,0,1,2.6,5.949,15.729,15.729,0,0,1,0,0,27.688,27.688,0,0,0,4.881,6.555Z" transform="translate(442.509 587.098)" fill="#ef5760"/>
                </g>
                <g id="Group-27" data-name="Group">
                  <path id="Vector-52" data-name="Vector" d="M89.31,39.455C75.5,50.979,38.52,78.6,38.52,78.6s18.67,42.106,20.915,48.643a26.734,26.734,0,0,1,1.1,4.15l.053.321A15.475,15.475,0,0,0,63.55,138.2a.745.745,0,0,1,.16.267c.2.606-15.909,13.875-15.909,13.875s-1.39-1.318-3.688-3.634C32.748,137.221-.993,101.1.022,77.7,7.772,46.9,72.19.413,84.3.021,109.191-.816,107.873,23.959,89.31,39.455Z" transform="translate(382.914 425.298)" fill="#fff"/>
                  <path id="Vector-53" data-name="Vector" d="M19.6,6.75c.2.606-15.909,13.875-15.909,13.875S2.3,19.307,0,16.992L16.479,0a15.475,15.475,0,0,0,2.957,6.483A1.159,1.159,0,0,1,19.6,6.75Z" transform="translate(427.028 556.998)" fill="#fffcf6"/>
                </g>
              </g>
            </g>
          </g>
        </g>
      </g>
    </g>
  </g>
</svg>
