<svg xmlns="http://www.w3.org/2000/svg" xmlns:xlink="http://www.w3.org/1999/xlink" width="56" height="56" viewBox="0 0 56 56">
  <defs>
    <filter id="Ellipse_145" x="0" y="0" width="56" height="56" filterUnits="userSpaceOnUse">
      <feOffset input="SourceAlpha"/>
      <feGaussianBlur stdDeviation="3" result="blur"/>
      <feFlood flood-opacity="0.161"/>
      <feComposite operator="in" in2="blur"/>
      <feComposite in="SourceGraphic"/>
    </filter>
  </defs>
  <g id="download" transform="translate(-1275 -391)">
    <g transform="matrix(1, 0, 0, 1, 1275, 391)" filter="url(#Ellipse_145)">
      <circle id="Ellipse_145-2" data-name="Ellipse 145" cx="19" cy="19" r="19" transform="translate(9 9)" fill="#fff"/>
    </g>
    <g id="noun_Download_3836177" transform="translate(1293.837 409.837)">
      <path id="Path_29725" data-name="Path 29725" d="M18.493,13a.833.833,0,0,0-.833.833v3.509a2.324,2.324,0,0,1-2.322,2.322H4.988a2.324,2.324,0,0,1-2.322-2.322V13.833a.833.833,0,0,0-1.666,0v3.509A3.992,3.992,0,0,0,4.988,21.33H15.339a3.992,3.992,0,0,0,3.988-3.988V13.833A.833.833,0,0,0,18.493,13Z" transform="translate(-1 -3.004)" fill="#daa520"/>
      <path id="Path_29726" data-name="Path 29726" d="M10.242,14.917a.833.833,0,0,0,1.178,0l5-5A.833.833,0,1,0,15.24,8.741l-3.576,3.576V1.833a.833.833,0,1,0-1.666,0V12.317L6.422,8.741A.833.833,0,1,0,5.244,9.919Z" transform="translate(-1.668 -1)" fill="#673695"/>
    </g>
  </g>
</svg>
